<svg width="32" height="32" viewBox="0 0 32 32" fill="none" xmlns="http://www.w3.org/2000/svg">
<path opacity="0.3" d="M0 4C0 1.79086 1.79086 0 4 0H28C30.2091 0 32 1.79086 32 4V28C32 30.2091 30.2091 32 28 32H4C1.79086 32 0 30.2091 0 28V4Z" fill="#470137"/>
<path d="M16.9578 10.1331L13.1681 16.3862L17.2105 23.0183C17.2357 23.0688 17.2484 23.1193 17.2357 23.1699C17.2231 23.2204 17.1726 23.1825 17.0968 23.1951H14.2039C14.0018 23.1951 13.8628 23.1825 13.7744 23.0562C13.5091 22.5256 13.2312 22.0077 12.9659 21.4771C12.7007 20.9592 12.4101 20.4286 12.1069 19.8854C11.8037 19.3422 11.5006 18.799 11.1974 18.2432H11.1721C10.9068 18.7864 10.6163 19.3296 10.3257 19.8728C10.0352 20.416 9.74465 20.9592 9.46673 21.4898C9.17619 22.0203 8.88564 22.5635 8.59509 23.0814C8.54456 23.2078 8.4435 23.2204 8.30454 23.2204H5.52539C5.47486 23.2204 5.43696 23.2457 5.43696 23.1825C5.42433 23.132 5.43696 23.0814 5.46223 23.0435L9.39094 16.601L5.56329 10.1205C5.52539 10.07 5.51276 10.0194 5.53802 9.99417C5.56329 9.95627 5.61382 9.94364 5.66435 9.94364H8.53193C8.59509 9.94364 8.65825 9.95627 8.70878 9.9689C8.75931 9.99417 8.79721 10.0321 8.83511 10.0826C9.07513 10.6258 9.35304 11.169 9.64359 11.7122C9.94677 12.2554 10.2373 12.786 10.5531 13.3165C10.8563 13.8471 11.1342 14.3776 11.3995 14.9208H11.4248C11.6901 14.365 11.968 13.8218 12.2459 13.2913C12.5238 12.7607 12.8143 12.2301 13.1049 11.6996C13.3954 11.169 13.6734 10.6258 13.9513 10.1079C13.9639 10.0573 13.9892 10.0068 14.0271 9.98154C14.0776 9.95627 14.1281 9.94364 14.1913 9.95627H16.8567C16.9199 9.94364 16.9831 9.98154 16.9957 10.0447C17.0083 10.0573 16.9831 10.1079 16.9578 10.1331ZM22.794 23.4605C21.8592 23.4732 20.9244 23.2837 20.078 22.8921C19.2822 22.5257 18.6253 21.9194 18.1705 21.1741C17.7031 20.4035 17.4757 19.4434 17.4757 18.2939C17.4631 17.359 17.7031 16.4369 18.1705 15.6284C18.6506 14.8073 19.3454 14.1251 20.1791 13.6704C21.0634 13.1777 22.1245 12.9377 23.3751 12.9377C23.4383 12.9377 23.5267 12.9377 23.6404 12.9503C23.7541 12.9629 23.8804 12.9629 24.032 12.9756V8.98369C24.032 8.89527 24.0699 8.84474 24.1583 8.84474H26.7227C26.7859 8.8321 26.8364 8.88263 26.8491 8.93316V20.9846C26.8491 21.212 26.8617 21.4646 26.8743 21.7425C26.8996 22.0078 26.9122 22.2605 26.9249 22.4752C26.9249 22.5636 26.887 22.6394 26.7985 22.6773C26.1416 22.9552 25.4469 23.1574 24.7394 23.2837C24.0952 23.3974 23.4509 23.4605 22.794 23.4605ZM24.032 20.934V15.3757C23.9183 15.3505 23.8046 15.3252 23.6909 15.3126C23.552 15.2999 23.413 15.2873 23.2741 15.2873C22.7814 15.2873 22.2887 15.3884 21.8466 15.6158C21.4171 15.8305 21.0507 16.1463 20.7728 16.5506C20.4949 16.9548 20.356 17.498 20.356 18.1549C20.3433 18.597 20.4191 19.0392 20.5707 19.456C20.697 19.7971 20.8865 20.1003 21.1392 20.353C21.3792 20.5803 21.6697 20.7572 21.9982 20.8583C22.3393 20.9719 22.693 21.0225 23.0467 21.0225C23.2362 21.0225 23.413 21.0098 23.5772 20.9972C23.7415 21.0098 23.8804 20.9846 24.032 20.934Z" fill="#FF61F6"/>
</svg>
