<svg width="32" height="32" viewBox="0 0 32 32" fill="none" xmlns="http://www.w3.org/2000/svg">
<path d="M0 4C0 1.79086 1.79086 0 4 0H28C30.2091 0 32 1.79086 32 4V28C32 30.2091 30.2091 32 28 32H4C1.79086 32 0 30.2091 0 28V4Z" fill="#1E1E1E"/>
<mask id="mask0_1_82" style="mask-type:luminance" maskUnits="userSpaceOnUse" x="9" y="7" width="13" height="19">
<path d="M9.89502 7.91614H21.5337V25.3707H9.89502V7.91614Z" fill="white"/>
</mask>
<g mask="url(#mask0_1_82)">
<path d="M12.8053 25.3708C14.4111 25.3708 15.7144 24.0676 15.7144 22.4618V19.5526H12.8053C11.1995 19.5526 9.89618 20.8559 9.89618 22.4618C9.89618 24.0676 11.1995 25.3708 12.8053 25.3708Z" fill="#0ACF83"/>
<path d="M9.89618 16.6434C9.89618 15.0376 11.1995 13.7344 12.8053 13.7344H15.7144V19.5525H12.8053C11.1995 19.5525 9.89618 18.2493 9.89618 16.6434Z" fill="#A259FF"/>
<path d="M9.89618 10.8252C9.89618 9.21938 11.1995 7.91614 12.8053 7.91614H15.7144V13.7343H12.8053C11.1995 13.7343 9.89618 12.431 9.89618 10.8252Z" fill="#DB2C00"/>
<path d="M15.7144 7.91614H18.6235C20.2293 7.91614 21.5327 9.21938 21.5327 10.8252C21.5327 12.431 20.2293 13.7343 18.6235 13.7343H15.7144V7.91614Z" fill="#FF7262"/>
<path d="M21.5327 16.6434C21.5327 18.2493 20.2294 19.5525 18.6236 19.5525C17.0178 19.5525 15.7145 18.2493 15.7145 16.6434C15.7145 15.0376 17.0178 13.7344 18.6236 13.7344C20.2294 13.7344 21.5327 15.0376 21.5327 16.6434Z" fill="#1ABCFE"/>
</g>
</svg>
