<svg width="32" height="32" viewBox="0 0 32 32" fill="none" xmlns="http://www.w3.org/2000/svg">
<path d="M0 4C0 1.79086 1.79086 0 4 0H28C30.2091 0 32 1.79086 32 4V28C32 30.2091 30.2091 32 28 32H4C1.79086 32 0 30.2091 0 28V4Z" fill="#330000"/>
<path d="M16.1895 20.3349H11.1769L10.1528 23.5015C10.1259 23.6228 10.0181 23.7036 9.89683 23.6901H7.3635C7.21532 23.6901 7.1749 23.6092 7.21532 23.4475L11.5542 10.9565C11.5946 10.8219 11.6351 10.6735 11.6889 10.5119C11.7428 10.2289 11.7697 9.93253 11.7697 9.63604C11.7563 9.56871 11.8101 9.50125 11.8776 9.48786H15.3675C15.4753 9.48786 15.5292 9.52829 15.5427 9.59562L20.4609 23.4746C20.5013 23.6228 20.4609 23.6901 20.3262 23.6901H17.5099C17.4157 23.7036 17.3213 23.6363 17.2944 23.5419L16.1895 20.3349ZM11.9585 17.5996H15.381C15.3001 17.3166 15.1924 16.9797 15.0711 16.6294C14.9498 16.2656 14.8286 15.8749 14.7073 15.4706C14.5725 15.0529 14.4512 14.6486 14.3164 14.2309C14.1818 13.8132 14.0605 13.4224 13.9526 13.0317C13.8449 12.6545 13.7505 12.304 13.6563 11.9806H13.6292C13.508 12.5601 13.3598 13.1395 13.1712 13.7189C12.9691 14.3657 12.7669 15.0393 12.5513 15.7132C12.3773 16.3491 12.1795 16.9784 11.9585 17.5996ZM23.4658 11.8458C23.0211 11.8594 22.59 11.6842 22.2666 11.3743C21.9567 11.0374 21.795 10.5927 21.8084 10.1346C21.795 9.67647 21.9701 9.24532 22.2935 8.93532C22.6169 8.62544 23.0482 8.46375 23.4928 8.46375C24.0183 8.46375 24.4226 8.62544 24.7189 8.93532C25.0176 9.26201 25.1771 9.69224 25.1636 10.1346C25.1771 10.5927 25.0154 11.0374 24.692 11.3743C24.3821 11.6977 23.924 11.8729 23.4658 11.8458ZM21.9567 23.5419V13.1664C21.9567 13.0317 22.0105 12.9777 22.1318 12.9777H24.7998C24.9211 12.9777 24.975 13.0452 24.975 13.1664V23.5419C24.975 23.6901 24.9211 23.7575 24.7998 23.7575H22.1588C22.024 23.7575 21.9567 23.6767 21.9567 23.5419Z" fill="#FF9A00"/>
</svg>
