<svg width="32" height="32" viewBox="0 0 32 32" fill="none" xmlns="http://www.w3.org/2000/svg">
<path d="M0 4C0 1.79086 1.79086 0 4 0H28C30.2091 0 32 1.79086 32 4V28C32 30.2091 30.2091 32 28 32H4C1.79086 32 0 30.2091 0 28V4Z" fill="#DC395F"/>
<path d="M11.6766 11.8001C12.5001 11.8001 13.1899 11.1736 13.1899 10.3525C13.1899 9.53202 12.5001 8.90564 11.6766 8.90564C10.8532 8.90564 10.1636 9.53202 10.1636 10.3525C10.1636 11.1735 10.8532 11.8001 11.6766 11.8001ZM8.53906 19.5507C8.45014 19.918 8.40553 20.3145 8.40553 20.638C8.40553 21.9126 9.1176 22.7588 10.6309 22.7588C11.8858 22.7588 12.9033 22.0354 13.6359 20.8673L13.1885 22.6098H15.6806L17.105 17.0646C17.461 15.6607 18.1509 14.9319 19.1968 14.9319C20.0202 14.9319 20.532 15.429 20.532 16.2495C20.532 16.4872 20.5097 16.7461 20.4207 17.0271L19.6863 19.5759C19.575 19.9431 19.5307 20.3106 19.5307 20.6559C19.5307 21.8659 20.2648 22.751 21.8003 22.751C23.1133 22.751 24.1591 21.9306 24.7377 19.9648L23.7587 19.598C23.2691 20.9149 22.8462 21.153 22.5124 21.153C22.1785 21.153 22.0005 20.9371 22.0005 20.5054C22.0005 20.3109 22.0452 20.0952 22.1118 19.8354L22.824 17.3522C23.002 16.7692 23.0688 16.2521 23.0688 15.777C23.0688 13.9194 21.9116 12.9499 20.5097 12.9499C19.1968 12.9499 17.8615 14.0995 17.1941 15.3093L17.6835 13.1378H13.8785L13.3443 15.0504H15.1246L14.0283 19.3108C13.1675 21.1685 11.5861 21.1986 11.3876 21.1555C11.0617 21.0841 10.8533 20.964 10.8533 20.553C10.8533 20.3158 10.8978 19.9752 11.0091 19.5644L12.6782 13.1378H8.45014L7.91602 15.0504H9.67388L8.53916 19.5507" fill="white"/>
</svg>
